<svg width="18" height="18" viewBox="0 0 18 18" fill="none" xmlns="http://www.w3.org/2000/svg">
<path d="M16.0312 12.3048C15.967 12.3414 15.8961 12.365 15.8227 12.3742C15.7494 12.3835 15.6749 12.3781 15.6036 12.3585C15.5322 12.3389 15.4655 12.3055 15.4071 12.26C15.3488 12.2146 15.2999 12.1581 15.2634 12.0938L13.9275 9.75945C13.1508 10.2846 12.294 10.6802 11.3906 10.9309L11.8033 13.4073C11.8155 13.4802 11.8132 13.5548 11.7965 13.6268C11.7799 13.6988 11.7492 13.7668 11.7062 13.8269C11.6632 13.8871 11.6088 13.9382 11.5461 13.9773C11.4834 14.0164 11.4136 14.0427 11.3407 14.0548C11.3107 14.0597 11.2804 14.0623 11.25 14.0626C11.1169 14.0624 10.9882 14.015 10.8868 13.9289C10.7853 13.8428 10.7177 13.7235 10.6959 13.5922L10.2902 11.1608C9.43463 11.2798 8.5667 11.2798 7.71114 11.1608L7.30543 13.5922C7.2836 13.7237 7.21577 13.8432 7.11404 13.9293C7.0123 14.0155 6.88328 14.0627 6.74996 14.0626C6.71887 14.0624 6.68784 14.0599 6.65715 14.0548C6.58424 14.0427 6.51442 14.0164 6.4517 13.9773C6.38898 13.9382 6.33458 13.8871 6.29162 13.8269C6.24865 13.7668 6.21796 13.6988 6.20129 13.6268C6.18463 13.5548 6.18232 13.4802 6.1945 13.4073L6.60934 10.9309C5.70627 10.6794 4.84998 10.2831 4.07387 9.75734L2.74215 12.0938C2.70522 12.1582 2.65597 12.2146 2.59722 12.26C2.53847 12.3053 2.47136 12.3386 2.39974 12.358C2.32811 12.3774 2.25337 12.3825 2.17978 12.373C2.10618 12.3635 2.03518 12.3396 1.97082 12.3027C1.90647 12.2657 1.85001 12.2165 1.80469 12.1577C1.75936 12.099 1.72605 12.0319 1.70666 11.9602C1.68727 11.8886 1.68218 11.8139 1.69167 11.7403C1.70116 11.6667 1.72506 11.5957 1.762 11.5313L3.16825 9.07039C2.6743 8.64365 2.22009 8.17297 1.81121 7.66414C1.76022 7.6072 1.72137 7.54048 1.69702 7.46803C1.67268 7.39558 1.66335 7.31893 1.66962 7.24275C1.67588 7.16658 1.6976 7.09249 1.73345 7.02499C1.76931 6.95749 1.81854 6.898 1.87815 6.85017C1.93775 6.80233 2.00648 6.76714 2.08014 6.74675C2.1538 6.72635 2.23084 6.72119 2.30657 6.73156C2.38229 6.74193 2.4551 6.76763 2.52057 6.80708C2.58603 6.84653 2.64276 6.8989 2.68731 6.96101C3.8545 8.40523 5.89637 10.1251 8.99996 10.1251C12.1036 10.1251 14.1454 8.40312 15.3126 6.96101C15.3567 6.89763 15.4133 6.844 15.4789 6.80343C15.5446 6.76287 15.6179 6.73626 15.6943 6.72524C15.7707 6.71423 15.8485 6.71905 15.9229 6.7394C15.9974 6.75976 16.0668 6.79522 16.127 6.84357C16.1871 6.89192 16.2367 6.95214 16.2726 7.02046C16.3084 7.08879 16.3299 7.16377 16.3355 7.24074C16.3412 7.3177 16.331 7.39501 16.3055 7.46785C16.28 7.54069 16.2397 7.60751 16.1873 7.66414C15.7784 8.17297 15.3242 8.64365 14.8303 9.07039L16.2365 11.5313C16.2743 11.5955 16.2989 11.6665 16.309 11.7402C16.3191 11.814 16.3145 11.889 16.2954 11.9609C16.2763 12.0329 16.2431 12.1003 16.1978 12.1593C16.1524 12.2183 16.0958 12.2678 16.0312 12.3048Z" fill="#606060"/>
</svg>
