<svg width="196" height="64" viewBox="0 0 196 64" fill="none" xmlns="http://www.w3.org/2000/svg">
<g clip-path="url(#clip0_327_5232)">
<path d="M0.078125 52.1928C0.734388 52.0665 1.40166 52.0058 2.06994 52.0117C2.90234 51.9451 3.73253 52.1641 4.42378 52.6326C4.65105 52.8092 4.83296 53.0374 4.95442 53.2983C5.07588 53.5592 5.13344 53.8453 5.12225 54.1328C5.11073 54.5571 4.96396 54.9666 4.70339 55.3016C4.44282 55.6367 4.08208 55.8797 3.67369 55.9953C4.16902 56.0964 4.61438 56.3651 4.93476 56.7562C5.25515 57.1472 5.43096 57.6368 5.43264 58.1423C5.43533 58.4613 5.37243 58.7774 5.24784 59.0711C5.12325 59.3648 4.93962 59.6297 4.70836 59.8495C3.86141 60.4562 2.82175 60.7323 1.78537 60.6255C1.21697 60.665 0.646517 60.665 0.078125 60.6255V52.1928ZM1.16458 55.6849H2.19925C3.3374 55.6849 4.03579 55.0641 4.03579 54.2622C4.03579 53.4603 3.28564 52.8654 2.17336 52.8654C1.84629 52.8377 1.51746 52.8377 1.19039 52.8654L1.16458 55.6849ZM1.16458 59.746C1.47419 59.7775 1.78615 59.7775 2.09576 59.746C3.23391 59.746 4.26859 59.3321 4.26859 58.0905C4.26859 56.8489 3.2857 56.4609 2.06994 56.4609H1.16458V59.746Z" fill="white"/>
<path d="M12.0018 59.3395C11.9734 59.891 11.9734 60.4436 12.0018 60.995H11.0189V60.0121C10.8152 60.365 10.5206 60.6568 10.1657 60.857C9.8108 61.0572 9.40864 61.1585 9.00125 61.1502C8.04417 61.1502 6.88013 60.607 6.88013 58.5635V54.8127H7.99239V58.2013C7.99239 59.3654 8.35453 60.1414 9.36335 60.1414C9.68065 60.135 9.98919 60.0362 10.2511 59.857C10.513 59.6778 10.717 59.426 10.8378 59.1326C10.8669 58.944 10.8669 58.7521 10.8378 58.5635V54.8127H11.9501L12.0018 59.3395Z" fill="white"/>
<path d="M15.1321 53.1827C15.1399 53.2764 15.1272 53.3707 15.0949 53.459C15.0626 53.5473 15.0114 53.6275 14.9449 53.694C14.8784 53.7605 14.7983 53.8117 14.71 53.844C14.6217 53.8763 14.5274 53.889 14.4337 53.8812C14.2485 53.8812 14.0708 53.8075 13.9398 53.6765C13.8089 53.5456 13.7352 53.3679 13.7352 53.1827C13.7352 52.9975 13.8089 52.8198 13.9398 52.6888C14.0708 52.5579 14.2485 52.4843 14.4337 52.4843C14.5253 52.4803 14.6166 52.4959 14.7018 52.5299C14.7869 52.564 14.8639 52.6158 14.9275 52.6818C14.9911 52.7479 15.0399 52.8267 15.0707 52.913C15.1016 52.9994 15.1136 53.0913 15.1062 53.1827M13.8646 54.8899H14.9769V60.9946H13.8646V54.8899Z" fill="white"/>
<path d="M17.9263 52.0446H16.814V60.9946H17.9263V52.0446Z" fill="white"/>
<path d="M25.0655 52.0446V59.4168C25.0655 59.96 25.0655 60.5808 25.0655 60.9947H24.0826V59.9341C23.8808 60.3115 23.5779 60.6251 23.2078 60.8398C22.8377 61.0546 22.4151 61.162 21.9873 61.1499C21.6105 61.1244 21.2428 61.0226 20.9064 60.851C20.57 60.6793 20.2719 60.4412 20.0301 60.1511C19.7883 59.8609 19.6079 59.5247 19.4997 59.1629C19.3915 58.801 19.3578 58.4211 19.4006 58.0458C19.3463 57.6469 19.3758 57.241 19.4871 56.854C19.5984 56.4671 19.7891 56.1076 20.0471 55.7985C20.3051 55.4894 20.6246 55.2375 20.9854 55.0588C21.3462 54.8801 21.7403 54.7786 22.1425 54.7607C22.5037 54.7395 22.864 54.8144 23.1867 54.978C23.5094 55.1416 23.7829 55.388 23.9792 55.6919V52.0446H25.0655ZM23.9533 57.3732C23.9775 57.219 23.9775 57.0619 23.9533 56.9076C23.8707 56.5451 23.6665 56.2217 23.3748 55.9912C23.0831 55.7606 22.7213 55.6368 22.3495 55.6402C21.2114 55.6402 20.5129 56.649 20.5129 57.9941C20.5129 59.3392 21.1337 60.2445 22.3236 60.2445C22.7045 60.2417 23.0732 60.1097 23.3693 59.87C23.6653 59.6304 23.8712 59.2973 23.9533 58.9253C23.9803 58.7626 23.9803 58.5965 23.9533 58.4338V57.3732Z" fill="white"/>
<path d="M28.0657 53.1827C28.0735 53.2764 28.0608 53.3707 28.0285 53.459C27.9962 53.5473 27.945 53.6275 27.8785 53.694C27.812 53.7605 27.7319 53.8117 27.6436 53.844C27.5553 53.8763 27.461 53.889 27.3673 53.8812C27.1821 53.8812 27.0044 53.8075 26.8734 53.6765C26.7425 53.5456 26.6688 53.3679 26.6688 53.1827C26.6688 52.9975 26.7425 52.8198 26.8734 52.6888C27.0044 52.5579 27.1821 52.4843 27.3673 52.4843C27.4589 52.4803 27.5502 52.4959 27.6354 52.5299C27.7205 52.564 27.7975 52.6158 27.8611 52.6818C27.9247 52.7479 27.9735 52.8267 28.0043 52.913C28.0352 52.9994 28.0472 53.0913 28.0398 53.1827M26.824 54.8899H28.0657V60.9946H26.9792L26.824 54.8899Z" fill="white"/>
<path d="M29.8766 56.5457C29.8766 55.9249 29.8766 55.4075 29.8766 54.8902H30.8595V55.899C31.0588 55.5423 31.3526 55.2473 31.7085 55.0466C32.0644 54.8458 32.4687 54.747 32.8771 54.7609C33.7049 54.7609 35.0241 55.2782 35.0241 57.3476V60.969H33.9119V57.3993C33.9119 56.4163 33.5497 55.6145 32.515 55.6145C32.1758 55.6177 31.8467 55.7302 31.5765 55.9352C31.3062 56.1402 31.1093 56.4268 31.0147 56.7526C30.9837 56.9237 30.9837 57.0989 31.0147 57.27V60.9172H29.9024L29.8766 56.5457Z" fill="white"/>
<path d="M42.1634 54.8124C42.1634 55.2521 42.1634 55.7436 42.1634 56.4937V60.0375C42.2244 60.5389 42.1774 61.0477 42.0257 61.5295C41.8741 62.0113 41.6211 62.4551 41.2839 62.8312C40.6563 63.3374 39.8646 63.5952 39.0593 63.5555C38.3557 63.5681 37.6607 63.3988 37.0417 63.064L37.3004 62.2103C37.8494 62.5297 38.4761 62.6909 39.111 62.676C40.2492 62.676 41.077 62.1069 41.077 60.5549V59.9858C40.8716 60.3104 40.5839 60.5749 40.2431 60.7521C39.9023 60.9293 39.5206 61.013 39.1369 60.9946C38.7684 60.9788 38.407 60.888 38.0747 60.7279C37.7424 60.5678 37.4462 60.3417 37.2042 60.0633C36.9621 59.785 36.7793 59.4602 36.6669 59.1089C36.5545 58.7576 36.5147 58.387 36.5502 58.0199C36.5074 57.6235 36.5461 57.2226 36.664 56.8418C36.7819 56.4609 36.9766 56.1083 37.2358 55.8054C37.4951 55.5026 37.8135 55.2559 38.1716 55.0807C38.5296 54.9055 38.9198 54.8053 39.318 54.7865C39.701 54.7655 40.0821 54.8541 40.4165 55.0419C40.751 55.2298 41.0249 55.509 41.2063 55.847V54.9159L42.1634 54.8124ZM40.9994 57.3991C41.0283 57.2278 41.0283 57.0529 40.9994 56.8817C40.9033 56.5448 40.6996 56.2487 40.4193 56.0385C40.139 55.8283 39.7976 55.7156 39.4473 55.7177C38.3868 55.7177 37.6367 56.5972 37.6367 58.0199C37.6367 59.4426 38.2316 60.2186 39.4215 60.2186C39.7675 60.2182 40.1044 60.1078 40.3835 59.9031C40.6625 59.6985 40.8691 59.4103 40.9735 59.0804C40.9981 58.8829 40.9981 58.6831 40.9735 58.4855L40.9994 57.3991Z" fill="white"/>
<path d="M50.0267 60.9947V60.2445C49.8072 60.5289 49.5248 60.7586 49.2017 60.9157C48.8786 61.0727 48.5235 61.1529 48.1643 61.1499C47.9226 61.1677 47.6799 61.1354 47.4513 61.055C47.2228 60.9746 47.0133 60.8479 46.836 60.6827C46.6587 60.5176 46.5175 60.3176 46.4211 60.0953C46.3247 59.873 46.2754 59.6331 46.276 59.3909C46.276 57.9164 47.5952 57.1146 49.975 57.1146V56.9852C49.9954 56.7968 49.9734 56.6062 49.9104 56.4274C49.8474 56.2487 49.7452 56.0862 49.6112 55.9522C49.4771 55.8182 49.3148 55.716 49.136 55.653C48.9572 55.5901 48.7666 55.5679 48.5781 55.5884C48.0148 55.5961 47.4629 55.7475 46.9744 56.0282L46.7157 55.3039C47.3238 54.9367 48.0231 54.7484 48.7333 54.7607C50.6216 54.7607 51.0614 56.0282 51.0614 57.3474V59.6237C51.0191 60.1056 51.0191 60.5904 51.0614 61.0723L50.0267 60.9947ZM49.8715 57.8906C48.6557 57.8906 47.2848 58.0717 47.2848 59.2616C47.273 59.4038 47.2924 59.5469 47.3415 59.6809C47.3907 59.8149 47.4684 59.9366 47.5694 60.0375C47.6703 60.1385 47.792 60.2162 47.926 60.2654C48.06 60.3145 48.2031 60.3339 48.3453 60.3221C48.67 60.3325 48.9893 60.2372 49.2551 60.0506C49.521 59.8641 49.7192 59.5963 49.8198 59.2874C49.8436 59.1766 49.8436 59.062 49.8198 58.9512L49.8715 57.8906Z" fill="white"/>
<path d="M55.3032 59.6754C55.902 60.0197 56.5784 60.2066 57.2691 60.2186C58.3814 60.2186 59.0539 59.6237 59.0539 58.7701C59.0539 57.9164 58.5883 57.5284 57.4501 57.0887C56.312 56.649 55.1997 55.873 55.1997 54.6831C55.2148 54.3469 55.2995 54.0174 55.4485 53.7157C55.5975 53.4139 55.8075 53.1464 56.0653 52.93C56.323 52.7136 56.6229 52.5531 56.9458 52.4585C57.2688 52.364 57.6079 52.3376 57.9416 52.3809C58.5966 52.349 59.2483 52.4919 59.8299 52.7948L59.5195 53.6742C59.0275 53.4084 58.4749 53.2747 57.9158 53.2862C56.7518 53.2862 56.312 53.9588 56.312 54.5537C56.312 55.1486 56.8294 55.7436 57.9934 56.1833C59.1574 56.6231 60.1662 57.425 60.1662 58.7701C60.1662 60.1151 59.2091 61.2016 57.1915 61.2016C56.4322 61.2135 55.6831 61.0262 55.0187 60.6584L55.3032 59.6754Z" fill="white"/>
<path d="M68.8576 57.3991C68.8576 56.2092 68.8576 54.8124 68.8576 53.726C68.5731 54.7348 68.211 55.7953 67.7712 56.9594L66.2709 61.0723H65.4432L64.0723 57.037C63.6584 55.8471 63.3221 54.7348 63.0634 53.726C63.0634 54.7865 63.0634 56.3127 62.9082 57.4767L62.6754 61.124H61.6407L62.2356 52.6396H63.6325L65.081 56.7525C65.4153 57.6853 65.7003 58.6351 65.9347 59.5979C66.1837 58.6334 66.4859 57.6835 66.84 56.7525L68.3403 52.6396H69.7371L70.2804 61.124H69.1939L68.8576 57.3991Z" fill="white"/>
<path d="M73.1011 58.3306L72.2217 60.9173H71.0835L73.9806 52.4329H75.2999L78.197 60.9173H77.0329L76.1275 58.3306H73.1011ZM75.8947 57.477L75.0671 55.0196C74.8835 54.5112 74.728 53.9932 74.6014 53.4677C74.6014 53.985 74.3427 54.5023 74.1875 55.0196L73.3598 57.477H75.8947Z" fill="white"/>
<path d="M79.4642 52.614C80.1561 52.4932 80.8571 52.4326 81.5595 52.4329C82.4795 52.3237 83.4061 52.574 84.1462 53.1313C84.4214 53.4102 84.62 53.7553 84.7228 54.1334C84.8255 54.5115 84.8289 54.9097 84.7326 55.2895C84.6364 55.6693 84.4437 56.0178 84.1733 56.3014C83.9029 56.5849 83.5639 56.7938 83.1891 56.9079C83.5319 57.0558 83.8297 57.2915 84.0522 57.5912C84.2748 57.891 84.4142 58.2442 84.4566 58.6152C84.5881 59.4121 84.8049 60.1926 85.1032 60.9432H83.9651C83.7228 60.2866 83.5326 59.612 83.3961 58.9256C83.1374 57.7615 82.6977 57.296 81.6888 57.2701H80.6541V60.9432H79.5677L79.4642 52.614ZM80.5507 56.494H81.6888C82.8529 56.494 83.603 55.8474 83.603 54.8644C83.603 53.8815 82.8011 53.3124 81.6371 53.2865C81.2762 53.2429 80.9115 53.2429 80.5507 53.2865V56.494Z" fill="white"/>
<path d="M87.9993 53.4418H85.4126V52.5106H91.6983V53.4418H89.1116V60.995H87.9993V53.4418Z" fill="white"/>
<path d="M96.4325 53.4418H93.8458V52.5106H100.157V53.4418H97.5448V60.995H96.4325V53.4418Z" fill="white"/>
<path d="M105.666 57.8907C105.707 58.3112 105.657 58.7355 105.521 59.1354C105.385 59.5353 105.165 59.9017 104.877 60.21C104.588 60.5184 104.237 60.7617 103.847 60.9237C103.456 61.0858 103.036 61.163 102.614 61.15C102.209 61.1552 101.807 61.0753 101.434 60.9154C101.061 60.7555 100.727 60.5192 100.451 60.2217C100.176 59.9243 99.9656 59.5724 99.8346 59.1886C99.7037 58.8049 99.6548 58.398 99.691 57.9942C99.6546 57.578 99.7063 57.1587 99.8427 56.7638C99.9791 56.3688 100.197 56.007 100.483 55.702C100.768 55.397 101.115 55.1555 101.5 54.9934C101.885 54.8312 102.3 54.7519 102.717 54.7608C103.123 54.7522 103.525 54.8287 103.899 54.9855C104.273 55.1422 104.609 55.3756 104.887 55.6706C105.165 55.9656 105.378 56.3156 105.512 56.698C105.647 57.0804 105.699 57.4867 105.666 57.8907ZM100.829 57.8907C100.829 59.2358 101.579 60.2187 102.666 60.2187C103.752 60.2187 104.528 59.2358 104.528 57.8648C104.528 56.4939 104.011 55.5109 102.692 55.5109C101.372 55.5109 100.829 56.7267 100.829 57.8907Z" fill="white"/>
<path d="M107.09 56.5459C107.09 55.9251 107.09 55.4077 107.09 54.8903H108.073V55.8733C108.265 55.5295 108.547 55.2443 108.889 55.0484C109.231 54.8525 109.619 54.7532 110.013 54.761C110.391 54.7638 110.76 54.8815 111.069 55.0987C111.379 55.3158 111.615 55.6222 111.746 55.9768C111.907 55.6692 112.137 55.4034 112.419 55.2007C112.8 54.8986 113.277 54.7427 113.764 54.761C114.592 54.761 115.781 55.3042 115.781 57.3477V60.9432H114.695V57.5029C114.695 56.313 114.281 55.6146 113.376 55.6146C113.078 55.6234 112.79 55.7255 112.554 55.9065C112.317 56.0875 112.143 56.3383 112.057 56.6235C112.028 56.8121 112.028 57.0039 112.057 57.1925V60.9432H110.841V57.3994C110.841 56.4165 110.401 55.7181 109.547 55.7181C109.232 55.7386 108.93 55.8566 108.685 56.0559C108.439 56.2551 108.262 56.5258 108.177 56.8304C108.137 57.0093 108.137 57.1946 108.177 57.3736V61.0467H107.09V56.5459Z" fill="white"/>
<path d="M123.179 57.8907C123.22 58.3112 123.17 58.7355 123.034 59.1354C122.898 59.5353 122.678 59.9017 122.39 60.21C122.101 60.5184 121.75 60.7617 121.359 60.9237C120.969 61.0858 120.549 61.163 120.127 61.15C119.721 61.1552 119.319 61.0753 118.947 60.9154C118.574 60.7555 118.239 60.5192 117.964 60.2217C117.688 59.9243 117.478 59.5724 117.348 59.1886C117.217 58.8049 117.168 58.398 117.204 57.9942C117.167 57.578 117.219 57.1587 117.355 56.7638C117.492 56.3688 117.71 56.007 117.995 55.702C118.281 55.397 118.628 55.1555 119.013 54.9934C119.398 54.8312 119.813 54.7519 120.23 54.7608C120.636 54.7522 121.038 54.8287 121.412 54.9855C121.786 55.1422 122.122 55.3756 122.4 55.6706C122.678 55.9656 122.891 56.3156 123.025 56.698C123.159 57.0804 123.212 57.4867 123.179 57.8907ZM118.316 57.8907C118.316 59.2358 119.092 60.2187 120.179 60.2187C121.265 60.2187 122.041 59.2358 122.041 57.8648C122.041 56.4939 121.524 55.5109 120.204 55.5109C118.885 55.5109 118.316 56.7267 118.316 57.8907Z" fill="white"/>
<path d="M124.577 56.8048C124.577 56.0805 124.577 55.4597 124.577 54.8907H125.56V56.1064C125.667 55.7317 125.89 55.4003 126.197 55.159C126.503 54.9176 126.877 54.7786 127.267 54.7614H127.577V55.796H127.189C126.811 55.808 126.45 55.9602 126.178 56.2232C125.905 56.4861 125.74 56.8409 125.715 57.2187C125.697 57.3907 125.697 57.564 125.715 57.7361V60.9694H124.602L124.577 56.8048Z" fill="white"/>
<path d="M128.766 56.8045C128.766 56.0802 128.766 55.4595 128.766 54.8904H129.749V56.1061C129.87 55.7287 130.109 55.3997 130.43 55.1671C130.751 54.9344 131.138 54.8103 131.534 54.8128H131.845V55.8474H131.534C131.156 55.8594 130.795 56.0117 130.523 56.2746C130.25 56.5375 130.085 56.8924 130.06 57.2702C130.042 57.4422 130.042 57.6155 130.06 57.7875V61.0209H128.947L128.766 56.8045Z" fill="white"/>
<path d="M138.312 57.8907C138.349 58.3103 138.296 58.7329 138.159 59.131C138.021 59.5291 137.801 59.8937 137.513 60.2011C137.225 60.5086 136.876 60.7519 136.487 60.9154C136.099 61.0789 135.681 61.1588 135.26 61.15C134.855 61.1552 134.452 61.0753 134.08 60.9154C133.707 60.7555 133.372 60.5192 133.097 60.2217C132.821 59.9243 132.611 59.5724 132.481 59.1886C132.35 58.8049 132.301 58.398 132.337 57.9942C132.3 57.578 132.352 57.1587 132.489 56.7638C132.625 56.3688 132.843 56.007 133.129 55.702C133.414 55.397 133.761 55.1555 134.146 54.9934C134.531 54.8312 134.946 54.7519 135.363 54.7608C135.769 54.7522 136.171 54.8287 136.545 54.9855C136.919 55.1422 137.255 55.3756 137.533 55.6706C137.811 55.9656 138.024 56.3156 138.158 56.698C138.292 57.0804 138.345 57.4867 138.312 57.8907ZM133.449 57.8907C133.449 59.2358 134.225 60.2187 135.312 60.2187C136.398 60.2187 137.174 59.2358 137.174 57.8648C137.174 56.4939 136.657 55.5109 135.338 55.5109C134.018 55.5109 133.449 56.7267 133.449 57.8907Z" fill="white"/>
<path d="M140.071 54.8127L140.873 57.9168C141.054 58.6152 141.209 59.2361 141.338 59.8569C141.494 59.2619 141.7 58.5893 141.882 57.9426L142.89 54.8127H143.822L144.779 57.865C145.011 58.6152 145.167 59.2619 145.322 59.8569C145.322 59.2619 145.606 58.6152 145.788 57.8909L146.667 54.8127H147.779L145.788 60.9173H144.779L143.847 58.0202C143.641 57.3218 143.459 56.7269 143.304 56.0026C143.16 56.6846 142.979 57.3582 142.761 58.0202L141.752 60.9173H140.743L138.907 54.8127H140.071Z" fill="white"/>
<path d="M73.5409 7.63055H0.931885V46.871H73.5409V7.63055Z" fill="#3F3D92"/>
<path d="M146.021 7.63055H73.3857V46.871H146.021V7.63055Z" fill="white"/>
<path d="M147.054 47.7253H0.129028V6.77759H147.054V47.7253ZM1.83619 46.0181H145.347V8.48483H1.70689L1.83619 46.0181Z" fill="#E83231"/>
<path d="M24.0044 27.6524C24.0486 29.6431 23.6325 31.6172 22.7886 33.4208C22.112 34.9492 21.0625 36.2833 19.7363 37.3008C18.8065 37.9605 17.763 38.4428 16.6581 38.7235C15.3662 39.0001 14.0473 39.1302 12.7263 39.1115H6.00085V16.0121H12.9074C14.2671 15.9899 15.6238 16.1464 16.9427 16.4777C17.9643 16.7514 18.9281 17.2071 19.788 17.8229C21.1376 18.8509 22.2054 20.2033 22.8921 21.7547C23.6766 23.5832 24.056 25.5598 24.0044 27.5489M18.8309 27.5489C18.8572 26.2244 18.6289 24.9072 18.1584 23.6688C17.744 22.5877 16.9789 21.6769 15.9855 21.0821C15.5077 20.7876 14.9827 20.5776 14.4336 20.4613C13.6553 20.338 12.8674 20.286 12.0796 20.3061H10.8121V34.6623H12.0796C12.9468 34.6874 13.8142 34.6181 14.6664 34.4554C15.2407 34.3272 15.7851 34.0901 16.2701 33.757C17.1862 33.1282 17.8755 32.2212 18.236 31.1702C18.6824 29.9447 18.893 28.6458 18.8568 27.342" fill="white"/>
<path d="M36.2404 37.2747L35.3091 38.1025C34.9915 38.3882 34.6447 38.6396 34.2744 38.8526C33.8313 39.0868 33.3625 39.2691 32.8776 39.3959C32.3509 39.5129 31.8133 39.5736 31.2738 39.5769C30.6275 39.5891 29.9865 39.4587 29.3963 39.1949C28.8062 38.9311 28.2814 38.5404 27.8594 38.0507C26.9075 36.9776 26.407 35.5782 26.4626 34.1448C26.4182 33.0667 26.6591 31.9959 27.161 31.0407C27.6391 30.2313 28.3393 29.5759 29.1786 29.1524C30.1631 28.6382 31.232 28.3053 32.3344 28.1695C33.6019 27.9626 34.9212 27.8332 36.2663 27.7298C36.3113 27.3413 36.2452 26.948 36.0758 26.5955C35.9064 26.2429 35.6406 25.9456 35.3091 25.738C34.413 25.3163 33.4271 25.1209 32.4379 25.1689C31.6052 25.1922 30.7827 25.3585 30.0064 25.6604L28.0663 26.3588H27.6525V22.1683C28.435 21.9431 29.2295 21.7618 30.0323 21.6252C31.1151 21.4182 32.215 21.3142 33.3174 21.3147C35.3194 21.1364 37.3213 21.6574 38.9823 22.7891C39.6044 23.3682 40.0862 24.0816 40.391 24.875C40.6958 25.6684 40.8156 26.521 40.7412 27.3677V39.1631H36.1628L36.2404 37.2747ZM36.2404 34.688V31.0925C35.6196 31.0925 34.947 31.0925 34.2227 31.3511C33.6593 31.4111 33.1042 31.5325 32.5672 31.7133C32.1436 31.8593 31.7739 32.1297 31.5066 32.4893C31.2417 32.8761 31.1143 33.3407 31.1445 33.8086C31.1142 34.0923 31.1142 34.3784 31.1445 34.6621C31.2021 34.9134 31.3379 35.1398 31.5325 35.3088C31.7215 35.5214 31.962 35.6819 32.2309 35.7745C32.6602 35.8312 33.095 35.8312 33.5243 35.7745C34.0092 35.7686 34.4866 35.6536 34.9211 35.4382C35.3855 35.2238 35.8064 34.9256 36.1628 34.5587" fill="white"/>
<path d="M54.2179 38.956C53.7034 39.1218 53.1755 39.243 52.6401 39.3182C51.9713 39.4076 51.2972 39.4508 50.6225 39.4475C49.8999 39.5062 49.1729 39.4198 48.4844 39.1932C47.7958 38.9666 47.1596 38.6045 46.6131 38.1282C45.6155 36.861 45.1432 35.2589 45.2938 33.6533V25.5309H43.4314V21.7544H45.2938V16.7878H49.9499V21.7544H54.2179V25.5309H49.9499V31.6873C49.9499 32.3081 49.9499 32.8255 49.9499 33.2911C49.941 33.7037 50.0023 34.1148 50.131 34.5068C50.246 34.8552 50.4735 35.1555 50.7777 35.3605C51.167 35.5934 51.6183 35.7017 52.071 35.6709C52.389 35.6594 52.7032 35.5983 53.0023 35.4898C53.2819 35.4099 53.5511 35.297 53.8041 35.1535H54.1921L54.2179 38.956Z" fill="white"/>
<path d="M65.7024 37.275L64.7971 38.1027C64.4663 38.3834 64.1114 38.6343 63.7366 38.8528C63.2915 39.0827 62.8232 39.2649 62.3397 39.3961C61.8131 39.5132 61.2755 39.5738 60.736 39.5771C60.0896 39.5893 59.4485 39.4589 58.8584 39.1951C58.2682 38.9313 57.7435 38.5407 57.3215 38.0509C56.3696 36.9778 55.8691 35.5785 55.9246 34.1451C55.8802 33.0669 56.1212 31.9962 56.6231 31.041C57.1012 30.2315 57.8014 29.5761 58.6407 29.1526C59.6252 28.6384 60.6942 28.3055 61.7965 28.1698C63.064 27.9628 64.3832 27.8334 65.7283 27.73C65.7733 27.3415 65.7073 26.9482 65.5379 26.5957C65.3685 26.2432 65.1027 25.9459 64.7712 25.7382C63.8751 25.3165 62.8892 25.1211 61.8999 25.1692C61.067 25.1898 60.2441 25.3562 59.4685 25.6606L57.6061 26.4107H57.1922V22.2203C57.9747 21.995 58.7691 21.8137 59.5719 21.6771C60.6547 21.4701 61.7547 21.3662 62.8571 21.3667C64.8591 21.1884 66.861 21.7094 68.522 22.8411C69.1441 23.4202 69.6259 24.1336 69.9307 24.927C70.2355 25.7204 70.3553 26.5729 70.2809 27.4196V39.215H65.7024V37.275ZM65.7024 34.6882V31.0927C65.0816 31.0927 64.409 31.0927 63.6848 31.3514C63.1208 31.4078 62.5653 31.5294 62.0293 31.7135C61.6057 31.8595 61.2361 32.13 60.9688 32.4895C60.7038 32.8764 60.5763 33.3409 60.6066 33.8088C60.5762 34.0925 60.5762 34.3786 60.6066 34.6623C60.6641 34.9136 60.8 35.14 60.9946 35.309C61.1836 35.5217 61.4241 35.6821 61.693 35.7747C62.1225 35.8288 62.557 35.8288 62.9864 35.7747C63.4713 35.7688 63.9487 35.6538 64.3832 35.4384C64.8476 35.224 65.2684 34.9259 65.6248 34.5589" fill="white"/>
<path d="M94.2342 31.8941C94.2645 32.9546 94.0464 34.0074 93.5973 34.9686C93.1482 35.9297 92.4804 36.7725 91.6475 37.4296C89.5901 38.9322 87.0784 39.6812 84.534 39.5507C83.0093 39.5696 81.4884 39.3957 80.0073 39.0333C78.7728 38.7207 77.5694 38.2965 76.4118 37.7659V32.2821H77.0067C78.0988 33.2558 79.3616 34.0188 80.7315 34.5325C82.0019 35.0288 83.3514 35.2917 84.7151 35.3085H86.0085C86.4499 35.2539 86.8837 35.1498 87.3018 34.9981C87.6773 34.8142 88.0255 34.5792 88.3365 34.2997C88.6174 33.9494 88.756 33.506 88.7246 33.058C88.7295 32.8102 88.6813 32.5643 88.5831 32.3367C88.4849 32.1091 88.3391 31.9052 88.1555 31.7388C87.6623 31.3227 87.077 31.0301 86.4482 30.8852L83.8615 30.3161C82.9823 30.1516 82.1174 29.9181 81.2748 29.6177C79.7707 29.1686 78.4425 28.265 77.4723 27.031C76.6668 25.8431 76.2592 24.4302 76.3083 22.9958C76.3001 21.9904 76.5303 20.9974 76.9799 20.0981C77.4295 19.1989 78.0858 18.419 78.895 17.8223C80.8384 16.3946 83.2113 15.6736 85.6205 15.7788C86.9944 15.7829 88.3641 15.9303 89.7074 16.2185C90.8949 16.4806 92.0555 16.853 93.1737 17.3309V22.6336H92.7339C91.8123 21.8546 90.7735 21.226 89.6557 20.7712C88.4653 20.2824 87.1918 20.0276 85.905 20.021C85.4569 19.9963 85.0079 19.9963 84.5599 20.021C84.1233 20.0988 83.6978 20.2292 83.2924 20.4091C82.9267 20.57 82.6002 20.8083 82.3354 21.1074C82.1755 21.2911 82.0549 21.5056 81.981 21.7376C81.9071 21.9697 81.8815 22.2144 81.9058 22.4567C81.93 22.699 82.0036 22.9337 82.1219 23.1465C82.2403 23.3594 82.4009 23.5457 82.594 23.6942C83.3215 24.1464 84.1296 24.4539 84.9738 24.5995L87.1725 25.091C87.8968 25.2721 88.6469 25.5048 89.4488 25.7894C90.8357 26.2243 92.0725 27.0399 93.0184 28.1433C93.8022 29.2809 94.1928 30.6434 94.1308 32.0234" fill="#3F3D92"/>
<path d="M113.118 30.4711C113.248 32.8875 112.515 35.2715 111.048 37.1966C110.294 37.9733 109.391 38.5908 108.393 39.0124C107.396 39.4341 106.324 39.6513 105.241 39.6513C104.158 39.6513 103.086 39.4341 102.089 39.0124C101.091 38.5908 100.188 37.9733 99.4339 37.1966C97.9675 35.2715 97.234 32.8875 97.3645 30.4711C97.2171 28.0326 97.9618 25.6237 99.4598 23.6939C100.214 22.9172 101.117 22.2997 102.115 21.8781C103.112 21.4564 104.184 21.2392 105.267 21.2392C106.35 21.2392 107.422 21.4564 108.419 21.8781C109.417 22.2997 110.319 22.9172 111.074 23.6939C112.531 25.6425 113.254 28.042 113.118 30.4711ZM107.453 34.6616C107.763 34.1767 107.99 33.6434 108.125 33.0837C108.278 32.2303 108.348 31.3639 108.332 30.497C108.348 29.6289 108.27 28.7617 108.099 27.9103C107.986 27.3237 107.767 26.7627 107.453 26.2547C107.219 25.871 106.877 25.565 106.47 25.3753C106.08 25.1984 105.656 25.11 105.228 25.1166C104.83 25.1001 104.432 25.1708 104.064 25.3236C103.657 25.5231 103.309 25.8265 103.055 26.203C102.729 26.7075 102.5 27.2691 102.383 27.8585C102.214 28.7101 102.136 29.5772 102.15 30.4452C102.145 31.2689 102.214 32.0914 102.357 32.9026C102.472 33.4966 102.691 34.0656 103.004 34.584C103.246 34.9443 103.575 35.2379 103.961 35.4376C104.365 35.6288 104.807 35.7279 105.254 35.7279C105.701 35.7279 106.143 35.6288 106.547 35.4376C106.954 35.2588 107.296 34.9612 107.53 34.584" fill="#3F3D92"/>
<path d="M127.861 19.1677H127.525L126.723 18.909C126.376 18.8247 126.02 18.7813 125.663 18.7797C125.334 18.7383 124.999 18.7676 124.683 18.8658C124.366 18.9639 124.074 19.1286 123.826 19.3488C123.445 20.0434 123.283 20.8368 123.36 21.6251V21.7544H126.904V25.531H123.516V39.1113H118.885V25.531H116.894V21.7544H118.885V21.1854C118.751 19.4732 119.248 17.7711 120.282 16.3999C120.821 15.828 121.483 15.3864 122.218 15.1085C122.953 14.8306 123.742 14.7238 124.524 14.7962C125.214 14.7962 125.835 14.7962 126.387 14.7962C126.883 14.8363 127.376 14.9141 127.861 15.029V19.1677Z" fill="#3F3D92"/>
<path d="M140.924 38.956C140.418 39.1191 139.899 39.2402 139.372 39.3182C138.695 39.4075 138.012 39.4507 137.329 39.4475C136.606 39.5062 135.879 39.4198 135.191 39.1932C134.502 38.9666 133.866 38.6045 133.32 38.1282C132.321 36.8622 131.857 35.2565 132.026 33.6533V25.5309H130.138V21.7544H132.026V16.7878H136.708V21.7544H140.976V25.5309H136.708V31.6873C136.708 32.3081 136.708 32.8255 136.708 33.2911C136.712 33.7028 136.773 34.1119 136.889 34.5068C137.004 34.8552 137.232 35.1555 137.536 35.3605C137.925 35.5934 138.377 35.7017 138.829 35.6709C139.147 35.6594 139.461 35.5983 139.76 35.4898C140.04 35.4099 140.309 35.297 140.562 35.1535H140.95L140.924 38.956Z" fill="#3F3D92"/>
<path d="M152.021 6.69974V2.0695H154.064C154.389 2.046 154.715 2.09008 155.021 2.19888C155.237 2.28481 155.419 2.43927 155.539 2.63858C155.664 2.84949 155.727 3.09178 155.72 3.33704C155.724 3.64213 155.613 3.93762 155.409 4.16481C155.133 4.40631 154.791 4.55943 154.426 4.60451C154.563 4.65439 154.686 4.73389 154.788 4.8373C154.987 5.01156 155.161 5.2117 155.306 5.43227L156.108 6.69974H155.332L154.814 5.66507C154.681 5.44113 154.534 5.2252 154.375 5.01839C154.299 4.89035 154.192 4.78356 154.064 4.708L153.78 4.57861H152.745V6.64803L152.021 6.69974ZM152.642 4.11302H153.961C154.175 4.1449 154.393 4.1449 154.607 4.11302C154.753 4.05563 154.879 3.95674 154.97 3.82852C155.048 3.704 155.092 3.56143 155.099 3.41464C155.104 3.31235 155.086 3.21023 155.045 3.11609C155.005 3.02195 154.944 2.93829 154.866 2.87145C154.642 2.70823 154.366 2.6344 154.09 2.66447H152.642V4.11302Z" fill="white"/>
<path d="M153.858 8.40722C153.092 8.40721 152.342 8.18031 151.705 7.7551C151.067 7.32988 150.57 6.72542 150.276 6.01794C149.981 5.31045 149.903 4.53161 150.051 3.77967C150.198 3.02772 150.565 2.33632 151.105 1.79266C151.645 1.24901 152.334 0.877461 153.085 0.724839C153.836 0.572217 154.615 0.645346 155.325 0.935057C156.034 1.22477 156.642 1.71808 157.071 2.35274C157.501 2.98741 157.733 3.73498 157.738 4.50126C157.738 5.53271 157.33 6.5223 156.603 7.25406C155.876 7.98583 154.889 8.40039 153.858 8.40722ZM153.858 1.19027C153.196 1.18516 152.547 1.37722 151.994 1.7419C151.442 2.10659 151.01 2.62744 150.754 3.23822C150.498 3.84899 150.43 4.52201 150.558 5.1717C150.686 5.82139 151.004 6.41838 151.473 6.8866C151.941 7.35482 152.538 7.67311 153.187 7.80104C153.837 7.92897 154.51 7.86071 155.121 7.60495C155.732 7.34919 156.253 6.91749 156.617 6.3648C156.982 5.81211 157.174 5.1634 157.169 4.50126C157.162 3.62522 156.811 2.78702 156.192 2.16755C155.572 1.54808 154.734 1.19704 153.858 1.19027Z" fill="white"/>
<path d="M152.9 14.589L167.101 40.3527L163.712 53.9588L150.649 28.79L152.9 14.589Z" fill="white"/>
<path d="M168.188 40.9993L195.607 27.031L190.252 40.9993L164.566 53.9587L168.188 40.9993Z" fill="white"/>
<path d="M181.458 0.00012207L154.065 14.1753L167.852 39.8873L195.737 25.9966L181.458 0.00012207ZM179.622 5.17355L180.449 6.7773L176.569 8.79493L177.501 10.5798L181.174 8.69152L182.001 10.2694L178.328 12.1835L179.389 14.227L183.502 12.1059L184.33 13.7097L178.096 16.9172L173.465 8.25174L179.622 5.17355ZM159.963 15.3393L162.549 13.9684L166.274 16.0636C167.369 16.7043 168.423 17.4128 169.43 18.1847C168.661 17.0694 167.97 15.9026 167.361 14.6926L166.041 12.1059L168.111 11.0454L172.612 19.685L170.258 20.9008L166.378 18.6762C165.238 18.0184 164.132 17.3018 163.067 16.5293C163.739 17.6415 164.386 18.8573 165.136 20.2541L166.481 22.8408L164.412 23.9013L159.963 15.3393ZM176.233 32.3857L174.5 31.2735L172.819 30.1871C172.86 30.8331 172.86 31.4811 172.819 32.1271V34.1189L170.232 35.4639L170.853 29.5921L165.835 26.7467L168.421 25.4276L170.128 26.5398C170.647 26.8662 171.148 27.2202 171.629 27.6004C171.629 26.9278 171.629 26.4364 171.629 25.8155V23.772L174.215 22.4528L173.595 28.1177L178.768 31.0148L176.233 32.3857ZM182.079 20.461L179.492 21.8579L178.613 20.2023L186.373 16.2447L187.227 17.8743L184.511 19.297L188.132 26.307L185.882 27.471L182.079 20.461Z" fill="black"/>
<path d="M181.458 0.00012207L154.065 14.1753L167.852 39.8873L195.737 25.9966L181.458 0.00012207ZM179.622 5.17355L180.449 6.7773L176.569 8.79493L177.501 10.5798L181.174 8.69152L182.001 10.2694L178.328 12.1835L179.389 14.227L183.502 12.1059L184.33 13.7097L178.096 16.9172L173.465 8.25174L179.622 5.17355ZM159.963 15.3393L162.549 13.9684L166.274 16.0636C167.369 16.7043 168.423 17.4128 169.43 18.1847C168.661 17.0694 167.97 15.9026 167.361 14.6926L166.041 12.1059L168.111 11.0454L172.612 19.685L170.258 20.9008L166.378 18.6762C165.238 18.0184 164.132 17.3018 163.067 16.5293C163.739 17.6415 164.386 18.8573 165.136 20.2541L166.481 22.8408L164.412 23.9013L159.963 15.3393ZM176.233 32.3857L174.5 31.2735L172.819 30.1871C172.86 30.8331 172.86 31.4811 172.819 32.1271V34.1189L170.232 35.4639L170.853 29.5921L165.835 26.7467L168.421 25.4276L170.128 26.5398C170.647 26.8662 171.148 27.2202 171.629 27.6004C171.629 26.9278 171.629 26.4364 171.629 25.8155V23.772L174.215 22.4528L173.595 28.1177L178.768 31.0148L176.233 32.3857ZM182.079 20.461L179.492 21.8579L178.613 20.2023L186.373 16.2447L187.227 17.8743L184.511 19.297L188.132 26.307L185.882 27.471L182.079 20.461Z" fill="white"/>
</g>
<defs>
<clipPath id="clip0_327_5232">
<rect width="195.737" height="63.6331" fill="white"/>
</clipPath>
</defs>
</svg>
